<svg xmlns="http://www.w3.org/2000/svg" width="512" height="512" viewBox="0 0 100 100" fill="none">
  <path 
    d="M 38.23 55.77 L 38.36 55.61 L 38.48 55.44 L 38.61 55.23 L 38.76 54.99 L 39.04 54.54 L 39.33 54.03 L 39.60 53.47 L 39.87 52.86 L 40.11 52.19 L 40.34 51.47 L 40.54 50.70 L 40.69 49.90 L 40.77 49.09 L 40.80 48.27 L 40.77 47.43 L 40.67 46.60 L 40.52 45.76 L 40.30 44.92 L 40.04 44.09 L 39.72 43.28 L 39.36 42.48 L 38.95 41.71 L 38.51 40.96 L 38.02 40.23 L 37.49 39.53 L 36.92 38.87 L 36.31 38.23 L 35.68 37.63 L 35.01 37.06 L 34.31 36.54 L 33.58 36.05 L 32.83 35.61 L 32.05 35.21 L 31.25 34.86 L 30.44 34.56 L 29.60 34.31 L 28.76 34.10 L 27.90 33.95 L 27.03 33.85 L 26.16 33.80 L 25.28 33.79 L 24.41 33.84 L 23.54 33.94 L 22.67 34.09 L 21.82 34.28 L 20.97 34.53 L 20.15 34.82 L 19.34 35.15 L 18.55 35.54 L 17.78 35.96 L 17.04 36.43 L 16.33 36.94 L 15.64 37.49 L 14.99 38.07 L 14.37 38.69 L 13.79 39.35 L 13.24 40.03 L 12.74 40.75 L 12.28 41.49 L 11.86 42.26 L 11.48 43.05 L 11.14 43.86 L 10.85 44.68 L 10.60 45.53 L 10.39 46.38 L 10.23 47.25 L 10.11 48.12 L 10.03 49.00 L 10.00 49.88 L 10.01 50.76 L 10.06 51.64 L 10.16 52.52 L 10.30 53.38 L 10.49 54.23 L 10.72 55.08 L 11.00 55.90 L 11.32 56.71 L 11.69 57.51 L 12.10 58.28 L 12.55 59.02 L 13.04 59.74 L 13.57 60.43 L 14.14 61.08 L 14.75 61.69 L 15.39 62.27 L 16.06 62.80 L 16.77 63.30 L 17.50 63.75 L 18.27 64.16 L 19.05 64.54 L 19.86 64.88 L 20.68 65.18 L 21.52 65.45 L 22.37 65.68 L 23.23 65.86 L 24.09 66.01 L 24.96 66.12 L 25.84 66.18 L 26.71 66.21 L 27.58 66.19 L 28.45 66.13 L 29.31 66.03 L 30.17 65.88 L 31.02 65.70 L 31.87 65.47 L 32.71 65.21 L 33.54 64.91 L 34.35 64.57 L 35.15 64.19 L 35.93 63.78 L 36.68 63.34 L 37.41 62.86 L 38.12 62.35 L 38.79 61.81 L 39.44 61.24 L 40.07 60.63 L 40.66 59.99 L 41.24 59.33 L 41.79 58.64 L 42.33 57.93 L 42.85 57.20 L 43.36 56.46 L 43.86 55.71 L 44.36 54.95 L 44.86 54.19 L 45.35 53.43 L 45.85 52.68 L 46.36 51.93 L 46.86 51.17 L 47.38 50.43 L 47.90 49.69 L 48.43 48.96 L 48.97 48.24 L 49.53 47.53 L 50.10 46.84 L 50.69 46.17 L 51.30 45.53 L 51.93 44.92 L 52.59 44.35 L 53.27 43.82 L 53.98 43.33 L 54.71 42.89 L 55.46 42.52 L 56.22 42.22 L 56.99 41.99 L 57.75 41.85 L 58.51 41.79 L 59.26 41.81 L 59.99 41.93 L 60.69 42.14 L 61.37 42.43 L 62.01 42.81 L 62.62 43.27 L 63.20 43.80 L 63.75 44.39 L 64.27 45.03 L 64.77 45.72 L 65.24 46.45 L 65.71 47.20 L 66.16 47.98 L 66.60 48.77 L 67.04 49.56 L 67.49 50.34 L 67.94 51.13 L 68.41 51.90 L 68.88 52.66 L 69.37 53.41 L 69.88 54.14 L 70.41 54.84 L 70.97 55.50 L 71.56 56.12 L 72.18 56.70 L 72.83 57.22 L 73.51 57.68 L 74.22 58.06 L 74.95 58.37 L 75.69 58.60 L 76.44 58.73 L 77.19 58.78 L 77.94 58.72 L 78.66 58.58 L 79.36 58.34 L 80.03 58.01 L 80.66 57.61 L 81.26 57.12 L 81.82 56.56 L 82.35 55.95 L 82.86 55.31 L 83.35 54.64 L 83.85 53.96 L 84.34 53.29 L 84.85 52.63 L 85.38 52.00 L 85.95 51.41 L 86.50 50.87 L 87.05 50.40 L 87.58 49.98 L 88.11 49.63 L 88.62 49.33 L 89.12 49.08 L 89.37 48.94 L 89.61 48.82 L 89.80 48.73 L 90.00 48.66" 
    stroke="#ff6a00" 
    stroke-width="8" 
    stroke-linecap="round" 
    stroke-linejoin="round"
  />
</svg>